<svg width="1816" height="374" viewBox="0 0 1816 374" fill="none" xmlns="http://www.w3.org/2000/svg">
<g clip-path="url(#clip0_154_37)">
<path d="M0 -19.5V94L125 135L279.5 164.5L443 178L664.5 164.5L1058.5 100L1374.5 70.5L1615 86L1823 135V-19.5H0Z" fill="#F3EDE7"/>
<path d="M1823 391.5L1823 278L1698 237L1543.5 207.5L1380 194L1158.5 207.5L764.5 272L448.5 301.5L208 286L-1.35068e-05 237L0 391.5L1823 391.5Z" fill="#C4C2A9"/>
<path d="M-5.5 218V91.5L135 140.5L236.5 161.5L380 179.5L558.5 173.5L963.5 122.5L1333.5 78L1602.5 104.5L1818.5 186V285L1668.5 235L1506 205L1364.5 198L1154 205L813.5 271.5L310 309.5L-5.5 218Z" fill="#E2D4C5"/>
<path fill-rule="evenodd" clip-rule="evenodd" d="M1816 79.0449L1816 194C1676.25 138.576 1519.44 114.459 1344.57 119.205C1169.81 123.95 976.988 157.488 765.125 179.037C299.418 231.079 91.4258 132.592 -9.93639e-05 103.569L-0.000102193 79.045C42.749 98.3813 85.4982 113.609 128.247 125.332C213.397 148.67 298.546 158.072 383.731 158.072L383.835 158.054C578.821 158.054 773.773 108.846 968.794 65.3219C1093.66 37.4684 1218.56 11.97 1343.46 3.22269C1373.03 1.13323 1402.63 -3.08297e-05 1432.23 -3.27909e-05C1560.17 -4.12665e-05 1688.07 21.1955 1816 79.0449ZM75.979 58.5755C75.979 58.5755 215.28 172.574 763.207 88.8901C763.207 88.8901 224.869 208.91 75.979 58.5755Z" fill="#7A6580"/>
<path fill-rule="evenodd" clip-rule="evenodd" d="M5.64567e-06 294.955L0 180C139.754 235.424 296.559 259.541 471.426 254.795C646.188 250.05 839.012 216.512 1050.87 194.963C1516.58 142.921 1724.57 241.409 1816 270.431L1816 294.955C1773.25 275.619 1730.5 260.391 1687.75 248.669C1602.6 225.33 1517.45 215.928 1432.27 215.928L1432.16 215.946C1237.18 215.946 1042.23 265.154 847.206 308.678C722.341 336.532 597.441 362.03 472.541 370.777C442.973 372.867 413.369 374 383.766 374C255.832 374 127.933 352.805 5.64567e-06 294.955ZM1740.02 315.425C1740.02 315.425 1600.72 201.426 1052.79 285.11C1052.79 285.11 1591.13 165.091 1740.02 315.425Z" fill="#D1B7B8"/>
</g>
<defs>
<clipPath id="clip0_154_37">
<rect width="1816" height="374" fill="white"/>
</clipPath>
</defs>
</svg>
